<?xml version="1.0" encoding="UTF-8" standalone="no"?>
<!-- Created with Inkscape (http://www.inkscape.org/) -->

<svg
   width="200mm"
   height="80mm"
   viewBox="0 0 200 80"
   version="1.1"
   id="svg5"
   xml:space="preserve"
   xmlns="http://www.w3.org/2000/svg"
   xmlns:svg="http://www.w3.org/2000/svg"
   xmlns:inkstitch="http://inkstitch.org/namespace"><defs
     id="defs2"><style
   type="text/css"
   id="style221">
   <![CDATA[
    .fil1 {fill:#F07D35}
    .fil5 {fill:#EF7D36}
    .fil2 {fill:#363435}
    .fil0 {fill:#314266}
    .fil4 {fill:#314266}
    .fil3 {fill:#314265}
   ]]>
  </style>
   
   
   
   
   
   
   
   
   
   
  </defs><g
     id="layer1"><g
       style="clip-rule:evenodd;fill-rule:evenodd;image-rendering:optimizeQuality;shape-rendering:geometricPrecision;text-rendering:geometricPrecision"
       id="g278"
       transform="matrix(0.01,0,0,0.01,8.78988,17.3586)"><g
         id="Layer_x0020_1">
  <metadata
   id="CorelCorpID_0Corel-Layer"><inkstitch:min_stitch_len_mm>0.3</inkstitch:min_stitch_len_mm><inkstitch:collapse_len_mm>3.0</inkstitch:collapse_len_mm><inkstitch:inkstitch_svg_version>2</inkstitch:inkstitch_svg_version></metadata>
  <g
   id="g238"
   style="display:inline;fill:#ff0000"
   transform="translate(-1384.322,-5431.4546)">
    <path
   class="fil2"
   d="m 9161.77,8743.64 v 1128.33 h 868.68 v -193.56 h -632.62 v -306.87 h 566.52 v -198.28 h -802.58 v -264.33 l 845.06,18.83 v -198.28 h -830.89 c -10.88,0 -14.17,3.29 -14.17,14.16 z"
   id="path230"
   inkstitch:fill_method="contour_fill"
   style="fill:#ff0000" />
    <path
   class="fil2"
   d="m 11290.96,8743.64 v 1128.33 h 231.33 v -495.71 h 448.5 v 495.71 h 231.33 V 8729.48 h -231.33 v 448.5 h -448.5 v -448.5 h -217.17 c -10.87,0 -14.16,3.29 -14.16,14.16 z"
   id="path232"
   inkstitch:fill_method="contour_fill"
   style="fill:#ff0000" />
    <path
   class="fil2"
   d="m 10143.75,9305.45 c 0,175.29 41.85,326.58 161.65,447.36 77.86,78.48 206.39,138.04 324.62,138.04 149.2,0 264.84,-15.66 374.88,-125.55 56.77,-56.69 124.34,-176.13 130.27,-247.41 -32.58,-2.71 -184.37,-62.58 -226.61,-66.09 -4.66,56 -41.99,124.96 -74.77,166 -13.32,16.67 -47.06,41.99 -66.84,51.19 -111.71,51.94 -250.19,16.79 -319,-82.33 -82.79,-119.29 -119.81,-544.45 89.15,-647.96 94.48,-46.79 209.14,-37.25 287.23,26.08 27.75,22.5 53.55,59.67 66.04,94.48 4.2,11.7 8.29,32.38 13.47,43.18 33.63,-16.14 226.61,-46.81 226.61,-61.38 0,-25.99 -43.06,-113.03 -55.67,-133.17 -51.4,-82.11 -125.44,-136.27 -217.52,-169.6 -46.23,-16.74 -95.84,-25.54 -146.19,-27.7 h -50.26 c -77.7,3.25 -155.05,21.19 -222.42,49.15 -18.14,7.52 -25.61,14 -42.82,23.27 -35.96,19.36 -91.7,67.39 -114.95,97.5 -48.39,62.67 -72.6,97.37 -99.77,178.77 -22.39,67.1 -37.1,155.59 -37.1,246.17 z"
   id="path234"
   style="display:inline;fill:#ff0000"
   inkstitch:fill_method="contour_fill" />
    <path
   class="fil2"
   d="m 8151.47,8743.64 v 169.96 c 0,10.87 3.29,14.16 14.17,14.16 h 325.74 v 944.21 h 231.34 v -944.21 h 335.19 v -198.28 h -892.27 c -10.88,0 -14.17,3.29 -14.17,14.16 z"
   id="path236"
   inkstitch:fill_method="contour_fill"
   style="fill:#ff0000" />
   </g><g
   id="g398"
   style="display:inline;fill:#ffffff"
   transform="translate(-1384.322,-5431.4546)"><g
     id="g408"
     style="display:inline;fill:#ffffff"><path
       class="fil0"
       d="m 5238.7,6836.7 -2146.93,-3.63 c -56.84,-0.05 -271.95,-15.01 -306.88,26.17 -27.83,32.84 -10.64,1089.66 -10.62,1235.24 0.04,408.66 -47.04,407.82 179.39,407.23 576.27,-1.47 2721.29,18.28 2807.51,-10.93 31.8,-65.93 26.17,-164.7 23.89,-261.28 l -127.95,-232.13 c -27.3,-54.97 -58.05,-90.6 -82.16,-142.98 l -1503.83,-0.65 c -550.48,-0.1 -476.38,34.34 -477.25,-173.6 -1.25,-298.89 -17.78,-260.83 113.13,-260.8 l 1701.2,0.21 c -36.52,-109.41 -61.55,-200.18 -110.45,-344.2 -19.97,-58.79 -40.32,-143.51 -59.05,-238.65 z"
       id="path226"
       style="clip-rule:evenodd;display:inline;fill-rule:evenodd;image-rendering:optimizeQuality;shape-rendering:geometricPrecision;text-rendering:geometricPrecision;fill:#ffffff"
       inkstitch:fill_method="contour_fill" /><path
       class="fil3"
       d="m 6289.14,5750.33 c -0.22,605.02 -111.08,1170.88 165.72,1725.24 l 543.39,949.48 1667.06,-0.04 c 187.49,-0.69 410.51,77.41 410.51,-124.37 v -447.86 c 0,-74.2 -25.38,-124.41 -99.54,-124.41 H 7309.26 c -151.92,0 -150.74,71.08 -149.13,-199.21 l -12.61,-360.61 c 0,-244.99 12.45,-476.25 12.45,-733.99 0,-832.8 56.36,-707.99 -187.05,-708.7 -45.01,-0.13 -80.05,-7.59 -101.83,-8.8 l -270.94,8.39 c -72.83,0 -109.71,-12.28 -161.91,-12.74 -65.15,-0.59 -100.04,26.19 -149.1,37.62 z"
       id="path240"
       inkstitch:fill_method="contour_fill"
       style="fill:#ffffff" /><path
       class="fil3"
       d="m 6289.14,5086.39 c 60.38,-16.12 125.09,-120.12 211.46,-186.64 115.86,-89.24 202.49,-193.53 355.18,-254.39 56.97,-22.72 90.03,-32.24 140.61,-58.45 253.65,-131.45 742.74,-194.22 1031.29,-156.75 46.21,6.01 117.3,27.61 166.54,32.5 216.67,21.54 285.94,48.35 494.5,115.11 353.19,113.04 380.5,183.68 673.42,334.25 53.23,27.37 70.63,45.22 117.15,81.9 l 433.34,375.29 c 123.07,123.22 30.75,115.93 295.28,115.25 l 574.15,23.17 c 173.42,20.62 212.37,-71.32 103.06,-153 l -195.16,-190.5 c -83.1,-83.18 -435.22,-395.01 -556.07,-464.02 L 9639.6,4423.07 c -61.59,-34.2 -106.83,-59.46 -169.99,-91.26 -320.32,-161.27 -105.49,-52.63 -372.35,-150.15 -131.44,-48.03 -94.87,-17.15 -205.08,-43.74 -210.56,-50.8 -638.91,-121.92 -854.18,-89.36 -103.94,15.73 -276.78,5.97 -506.4,53.43 -220.61,45.59 -592.87,199.22 -766.15,341.05 -20.37,16.68 -22.75,23.63 -45.95,41.13 -115.71,87.25 -142.11,115.86 -240.09,232.66 l -82.65,103.95 c -24.95,43.32 -37.6,80.22 -61.99,124.64 -32.51,59.21 -45.63,50.48 -45.63,140.97 z"
       id="path242"
       inkstitch:fill_method="contour_fill"
       style="fill:#ffffff" /><path
       class="fil3"
       d="m 9536.11,10585.1 c -137.97,0 -373.6,-15.9 -508.46,-38.93 -222.15,-37.91 -118.9,-24.87 -287.73,-10.83 38.37,57.31 57.24,32.74 130.97,55.63 68.09,21.16 29.61,19.12 150.17,48.89 401.32,99.11 846.17,209.38 1292.07,137.56 156.11,-25.14 317.37,-53.53 465.23,-107.03 134.76,-48.77 245.37,-60.23 398.17,-174.12 234.95,-175.11 117.87,-64.25 312.13,-260.12 60.03,-60.53 115.42,-58.15 125.01,-173.56 -215.81,0 -431.72,1.25 -647.53,-0.63 -111.9,-0.97 -84.12,17.09 -220.85,102.59 -76.6,47.9 -444.93,293.33 -499.57,309.08 l -390.86,94.32 c -54.21,8.8 -102.48,0.98 -156.36,5.38 -56.22,4.57 -88.12,11.77 -162.39,11.77 z"
       id="path244"
       inkstitch:fill_method="contour_fill"
       style="fill:#ffffff" /><path
       class="fil0"
       d="m 10461.34,6439.69 272.61,723 h -533.37 c 24.15,-103.65 218.56,-541.82 260.76,-723 z m -118.53,-758.57 H 10649 c 108.35,32.49 121.43,125.83 152.51,205.05 44.86,114.37 90.4,218.73 133.95,328.29 86.71,218.15 176.1,427.1 264.09,648.56 l 513.92,1263.95 c 1.39,3.26 6.47,13.87 7.56,16.17 0.8,1.68 3.63,9.32 4.23,7.61 0.59,-1.69 2.65,5.18 4.3,7.55 V 5681.12 h 509.66 c 39.14,0 30.49,21.18 41.79,53.03 21.6,60.81 62.38,109.12 98.08,162.68 49.34,74.02 92.88,139.34 142.23,213.35 96.75,145.13 187.71,281.55 284.46,426.69 l 571.29,851.02 V 5681.12 h 545.21 V 8407.2 h -521.51 c -38.88,0 -31.11,-20.73 -41.24,-53.57 -30.23,-97.88 -714.57,-1092 -802.65,-1224.14 -49.35,-74.01 -92.89,-139.33 -142.23,-213.34 l -139.87,-203.86 0.1,1564.64 c 0.73,76.36 21.05,121.93 -41.41,130.87 h -527.01 l -510.26,-0.6 c -3.85,-46.25 -15.32,-61.17 -30.52,-99.85 l -242.09,-658.7 h -900.8 c -28.65,123.01 -255.06,690.11 -260.74,758.55 h -568.93 c 11.86,-142.47 192.1,-571.44 247.52,-724.38 205.93,-568.22 453.11,-1186.76 671.93,-1757.83 68.12,-177.78 50.35,-243.87 230.24,-243.87 z"
       id="path246"
       inkstitch:fill_method="contour_fill"
       style="fill:#ffffff" /><path
       class="fil4"
       d="m 15559.26,7862.07 h -553.15 v -1636.4 h 472.47 c 247.9,0 390.35,45.27 502.37,189.08 237.68,305.16 202.19,946.55 30.26,1219.36 -96.07,152.42 -261.55,227.96 -451.95,227.96 z M 14476,8369.12 h 1071.73 c 357.45,0 651.46,-139.51 821,-331.4 155.3,-175.77 319.87,-517.46 319.87,-844.04 0,-436.48 -13.45,-841.09 -319.74,-1143.8 -132.68,-131.13 -171.56,-175.62 -359.95,-250.82 -131.86,-52.64 -344.11,-80.44 -530.33,-80.44 H 14476 Z"
       id="path248"
       inkstitch:fill_method="contour_fill"
       style="fill:#ffffff" /><path
       class="fil4"
       d="m 16826.89,6410.05 c 0,231.87 45.31,374.73 198.76,527.25 189.79,188.65 404.66,234.37 677.05,302.48 90.54,22.63 176.3,45.99 265.17,69.03 141.31,36.64 380.18,96.19 380.18,276.69 v 46.1 c 0,343.02 -970.71,427.64 -1076.67,-98.78 -6.48,-32.19 -6.18,-189.33 -133.35,-189.33 -98.01,0 -151.17,23.05 -253.53,23.05 h -149.8 c 0,250.52 20.4,445.44 177.51,652.21 l 115.37,126.63 c 336.99,260.94 520.66,258.31 951.69,258.31 317.45,0 640.56,-181.66 800.23,-444.36 121.08,-199.23 136.55,-483.31 29.63,-696.63 -206.31,-411.68 -649.55,-458.32 -1053.47,-559.89 -94.34,-23.71 -162.27,-43.99 -245.76,-76.9 -252.5,-99.52 -150.97,-309.38 -44.78,-372.78 147.62,-88.13 539.17,-92.39 694.14,23.05 79.03,58.86 92.63,150.4 116.83,251.94 29.59,124.17 109.89,124.43 234.25,113.44 499.27,-44.08 308.25,39.91 287.52,-197.32 -21.34,-243.86 -88.28,-345.78 -250.86,-509.73 -264.41,-266.62 -771.89,-308.75 -1122.33,-205.83 -314.59,92.37 -597.78,339.72 -597.78,681.37 z"
       id="path250"
       inkstitch:fill_method="contour_fill"
       style="fill:#ffffff" /></g></g><g
   id="g390"
   style="display:inline"
   transform="translate(-1384.322,-5431.4546)"><path
     class="fil1"
     d="m 2774,6047.9 4.01,311.09 c 18.58,73.62 11.91,17.64 36.08,65.98 775.26,14.66 1573.28,5.43 2362,3.2 -10.48,-93.71 -16.69,-176.92 -16.69,-234.58 l 15.81,-282.76 c 5.2,-39.65 10.39,-82.45 15.96,-125.88 l -2275.18,-0.96 c -167.94,-1.34 -141.91,-6.36 -141.99,263.91 z"
     id="path228"
     inkstitch:fill_method="contour_fill" /><path
     class="fil5"
     d="m 6078.13,8494.6 c 251.17,387.01 -376.67,3.36 -684.71,75.13 -15.94,68.43 22.73,154.76 56,217.7 1044.83,1978.25 4479.86,3561.7 6198.04,1644.84 67.22,-74.98 164.24,-166.95 103.07,-282.59 -93.74,62.77 -181.79,196.65 -257.93,264.57 -1439.69,949.28 -3564.79,292.76 -4604.39,-950.73 l -74.11,-75.17 c -35.85,-39.09 -34.75,-47.99 -63.2,-86.09 l -51.22,-98.06 c 128.32,0 721.54,152.78 721.54,62.21 0,-30.67 -265.33,-346.46 -327.12,-419.33 C 5702.31,7205.47 5143.78,4068.4 7968.98,3917.34 c 91.78,-4.91 172.59,-5.04 211.12,-62.57 -3279.43,0 -3400,2284.97 -2101.97,4639.83 z"
     id="path252"
     style="display:inline"
     inkstitch:fill_method="contour_fill" /></g>
 </g></g></g></svg>
